<svg xmlns="http://www.w3.org/2000/svg" width="900" height="268" viewBox="0 0 900 268">
  <rect width="900" height="268" fill="#ffffff" rx="6" ry="6" />
  <!-- title -->
  <text x="450" y="20" text-anchor="middle"
        font-family="-apple-system, BlinkMacSystemFont, &quot;Segoe UI&quot;, Helvetica, Arial, sans-serif" font-size="14" font-weight="600" fill="#24292e"
        >Station Plays — Record Growth</text>
  <!-- legend -->
  <circle cx="365" cy="31" r="4" fill="#3b82f6" />
  <text x="373" y="34" font-family="-apple-system, BlinkMacSystemFont, &quot;Segoe UI&quot;, Helvetica, Arial, sans-serif" font-size="11" fill="#586069">Total Records</text>
  <circle cx="455" cy="31" r="4" fill="#22c55e" />
  <text x="463" y="34" font-family="-apple-system, BlinkMacSystemFont, &quot;Segoe UI&quot;, Helvetica, Arial, sans-serif" font-size="11" fill="#586069">Added</text>
  <!-- grid lines -->
  <line x1="58" y1="52" x2="848" y2="52"
           stroke="#e1e4e8" stroke-width="1" stroke-dasharray="4,3" />
  <line x1="58" y1="145" x2="848" y2="145"
           stroke="#e1e4e8" stroke-width="1" stroke-dasharray="4,3" />
  <line x1="58" y1="236" x2="848" y2="236"
           stroke="#e1e4e8" stroke-width="1" stroke-dasharray="4,3" />
  <!-- bars (Added, right axis) -->
  <rect x="59" y="189" width="32" height="51"
          rx="1" fill="#22c55eb3" />
  <rect x="93" y="187" width="32" height="53"
          rx="1" fill="#22c55eb3" />
  <rect x="127" y="182" width="32" height="58"
          rx="1" fill="#22c55eb3" />
  <rect x="161" y="81" width="32" height="159"
          rx="1" fill="#22c55eb3" />
  <rect x="195" y="91" width="32" height="149"
          rx="1" fill="#22c55eb3" />
  <rect x="229" y="76" width="32" height="164"
          rx="1" fill="#22c55eb3" />
  <rect x="263" y="78" width="32" height="162"
          rx="1" fill="#22c55eb3" />
  <rect x="297" y="75" width="32" height="165"
          rx="1" fill="#22c55eb3" />
  <rect x="331" y="79" width="32" height="161"
          rx="1" fill="#22c55eb3" />
  <rect x="365" y="81" width="32" height="159"
          rx="1" fill="#22c55eb3" />
  <rect x="399" y="79" width="32" height="161"
          rx="1" fill="#22c55eb3" />
  <rect x="433" y="74" width="32" height="166"
          rx="1" fill="#22c55eb3" />
  <rect x="467" y="79" width="32" height="161"
          rx="1" fill="#22c55eb3" />
  <rect x="501" y="79" width="32" height="161"
          rx="1" fill="#22c55eb3" />
  <rect x="535" y="81" width="32" height="159"
          rx="1" fill="#22c55eb3" />
  <rect x="569" y="76" width="32" height="164"
          rx="1" fill="#22c55eb3" />
  <rect x="603" y="74" width="32" height="166"
          rx="1" fill="#22c55eb3" />
  <rect x="637" y="80" width="32" height="160"
          rx="1" fill="#22c55eb3" />
  <rect x="671" y="73" width="32" height="167"
          rx="1" fill="#22c55eb3" />
  <rect x="705" y="86" width="32" height="154"
          rx="1" fill="#22c55eb3" />
  
  <rect x="773" y="210" width="32" height="30"
          rx="1" fill="#22c55eb3" />
  <rect x="807" y="161" width="32" height="79"
          rx="1" fill="#22c55eb3" />
  <!-- line (Total, left axis) -->
  <polyline points="75,240 109,237 143,233 177,223 211,213 245,203 279,192 313,182 347,171 381,161 415,151 449,140 483,130 517,119 551,109 585,99 619,88 653,78 687,67 721,57 755,57 789,55 823,50" fill="none" stroke="#3b82f6" stroke-width="2" stroke-linejoin="round" stroke-linecap="round" />
  <!-- left y-axis labels (Total) -->
  <text x="52" y="56" text-anchor="end"
           font-family="-apple-system, BlinkMacSystemFont, &quot;Segoe UI&quot;, Helvetica, Arial, sans-serif" font-size="10" fill="#586069"
           >227M</text>
  <text x="52" y="149" text-anchor="end"
           font-family="-apple-system, BlinkMacSystemFont, &quot;Segoe UI&quot;, Helvetica, Arial, sans-serif" font-size="10" fill="#586069"
           >190M</text>
  <text x="52" y="240" text-anchor="end"
           font-family="-apple-system, BlinkMacSystemFont, &quot;Segoe UI&quot;, Helvetica, Arial, sans-serif" font-size="10" fill="#586069"
           >152M</text>
  <!-- right y-axis labels (Added) -->
  <text x="854" y="56" text-anchor="start"
           font-family="-apple-system, BlinkMacSystemFont, &quot;Segoe UI&quot;, Helvetica, Arial, sans-serif" font-size="10" fill="#22c55e"
           >4M</text>
  <text x="854" y="149" text-anchor="start"
           font-family="-apple-system, BlinkMacSystemFont, &quot;Segoe UI&quot;, Helvetica, Arial, sans-serif" font-size="10" fill="#22c55e"
           >2M</text>
  <text x="854" y="240" text-anchor="start"
           font-family="-apple-system, BlinkMacSystemFont, &quot;Segoe UI&quot;, Helvetica, Arial, sans-serif" font-size="10" fill="#22c55e"
           >0</text>
  <!-- axes -->
  <line x1="58" y1="50" x2="58" y2="240"
        stroke="#e1e4e8" stroke-width="1" />
  <line x1="58" y1="240" x2="848" y2="240"
        stroke="#e1e4e8" stroke-width="1" />
  <line x1="848" y1="50" x2="848" y2="240"
           stroke="#e1e4e8" stroke-width="1" />
  <!-- x-axis labels -->
  <text x="75" y="256" text-anchor="middle"
           font-family="-apple-system, BlinkMacSystemFont, &quot;Segoe UI&quot;, Helvetica, Arial, sans-serif" font-size="10" fill="#586069"
           >Dec 7</text>
  <text x="313" y="256" text-anchor="middle"
           font-family="-apple-system, BlinkMacSystemFont, &quot;Segoe UI&quot;, Helvetica, Arial, sans-serif" font-size="10" fill="#586069"
           >Jan 25</text>
  <text x="551" y="256" text-anchor="middle"
           font-family="-apple-system, BlinkMacSystemFont, &quot;Segoe UI&quot;, Helvetica, Arial, sans-serif" font-size="10" fill="#586069"
           >Mar 15</text>
  <text x="789" y="256" text-anchor="middle"
           font-family="-apple-system, BlinkMacSystemFont, &quot;Segoe UI&quot;, Helvetica, Arial, sans-serif" font-size="10" fill="#586069"
           >May 3</text>
  <text x="823" y="256" text-anchor="middle"
           font-family="-apple-system, BlinkMacSystemFont, &quot;Segoe UI&quot;, Helvetica, Arial, sans-serif" font-size="10" fill="#586069"
           >May 10</text>
</svg>