<svg xmlns="http://www.w3.org/2000/svg" width="900" height="268" viewBox="0 0 900 268">
  <rect width="900" height="268" fill="#ffffff" rx="6" ry="6" />
  <!-- title -->
  <text x="450" y="20" text-anchor="middle"
        font-family="-apple-system, BlinkMacSystemFont, &quot;Segoe UI&quot;, Helvetica, Arial, sans-serif" font-size="14" font-weight="600" fill="#24292e"
        >Station Plays — Record Growth</text>
  <!-- legend -->
  <circle cx="365" cy="31" r="4" fill="#3b82f6" />
  <text x="373" y="34" font-family="-apple-system, BlinkMacSystemFont, &quot;Segoe UI&quot;, Helvetica, Arial, sans-serif" font-size="11" fill="#586069">Total Records</text>
  <circle cx="455" cy="31" r="4" fill="#22c55e" />
  <text x="463" y="34" font-family="-apple-system, BlinkMacSystemFont, &quot;Segoe UI&quot;, Helvetica, Arial, sans-serif" font-size="11" fill="#586069">Added</text>
  <!-- grid lines -->
  <line x1="58" y1="52" x2="848" y2="52"
           stroke="#e1e4e8" stroke-width="1" stroke-dasharray="4,3" />
  <line x1="58" y1="145" x2="848" y2="145"
           stroke="#e1e4e8" stroke-width="1" stroke-dasharray="4,3" />
  <line x1="58" y1="236" x2="848" y2="236"
           stroke="#e1e4e8" stroke-width="1" stroke-dasharray="4,3" />
  <!-- bars (Added, right axis) -->
  <rect x="59" y="188" width="28" height="52"
          rx="1" fill="#22c55eb3" />
  <rect x="89" y="187" width="28" height="53"
          rx="1" fill="#22c55eb3" />
  <rect x="119" y="188" width="28" height="52"
          rx="1" fill="#22c55eb3" />
  <rect x="149" y="189" width="28" height="51"
          rx="1" fill="#22c55eb3" />
  <rect x="179" y="190" width="28" height="50"
          rx="1" fill="#22c55eb3" />
  <rect x="209" y="191" width="28" height="49"
          rx="1" fill="#22c55eb3" />
  <rect x="239" y="191" width="28" height="49"
          rx="1" fill="#22c55eb3" />
  <rect x="269" y="191" width="28" height="49"
          rx="1" fill="#22c55eb3" />
  <rect x="299" y="191" width="28" height="49"
          rx="1" fill="#22c55eb3" />
  <rect x="329" y="194" width="28" height="46"
          rx="1" fill="#22c55eb3" />
  <rect x="359" y="197" width="28" height="43"
          rx="1" fill="#22c55eb3" />
  <rect x="389" y="190" width="28" height="50"
          rx="1" fill="#22c55eb3" />
  <rect x="419" y="192" width="28" height="48"
          rx="1" fill="#22c55eb3" />
  <rect x="449" y="190" width="28" height="50"
          rx="1" fill="#22c55eb3" />
  <rect x="479" y="188" width="28" height="52"
          rx="1" fill="#22c55eb3" />
  <rect x="509" y="183" width="28" height="57"
          rx="1" fill="#22c55eb3" />
  <rect x="539" y="83" width="28" height="157"
          rx="1" fill="#22c55eb3" />
  <rect x="569" y="93" width="28" height="147"
          rx="1" fill="#22c55eb3" />
  <rect x="599" y="78" width="28" height="162"
          rx="1" fill="#22c55eb3" />
  <rect x="629" y="80" width="28" height="160"
          rx="1" fill="#22c55eb3" />
  <rect x="659" y="77" width="28" height="163"
          rx="1" fill="#22c55eb3" />
  <rect x="689" y="79" width="28" height="161"
          rx="1" fill="#22c55eb3" />
  <rect x="719" y="82" width="28" height="158"
          rx="1" fill="#22c55eb3" />
  <rect x="749" y="81" width="28" height="159"
          rx="1" fill="#22c55eb3" />
  <rect x="779" y="73" width="28" height="167"
          rx="1" fill="#22c55eb3" />
  <rect x="809" y="171" width="28" height="69"
          rx="1" fill="#22c55eb3" />
  <!-- line (Total, left axis) -->
  <polyline points="73,240 103,236 133,231 163,227 193,223 223,218 253,214 283,210 313,206 343,202 373,199 403,194 433,190 463,186 493,182 523,177 553,164 583,151 613,138 643,124 673,110 703,97 733,83 763,70 793,56 823,50" fill="none" stroke="#3b82f6" stroke-width="2" stroke-linejoin="round" stroke-linecap="round" />
  <!-- left y-axis labels (Total) -->
  <text x="52" y="56" text-anchor="end"
           font-family="-apple-system, BlinkMacSystemFont, &quot;Segoe UI&quot;, Helvetica, Arial, sans-serif" font-size="10" fill="#586069"
           >194M</text>
  <text x="52" y="149" text-anchor="end"
           font-family="-apple-system, BlinkMacSystemFont, &quot;Segoe UI&quot;, Helvetica, Arial, sans-serif" font-size="10" fill="#586069"
           >164M</text>
  <text x="52" y="240" text-anchor="end"
           font-family="-apple-system, BlinkMacSystemFont, &quot;Segoe UI&quot;, Helvetica, Arial, sans-serif" font-size="10" fill="#586069"
           >135M</text>
  <!-- right y-axis labels (Added) -->
  <text x="854" y="56" text-anchor="start"
           font-family="-apple-system, BlinkMacSystemFont, &quot;Segoe UI&quot;, Helvetica, Arial, sans-serif" font-size="10" fill="#22c55e"
           >4M</text>
  <text x="854" y="149" text-anchor="start"
           font-family="-apple-system, BlinkMacSystemFont, &quot;Segoe UI&quot;, Helvetica, Arial, sans-serif" font-size="10" fill="#22c55e"
           >2M</text>
  <text x="854" y="240" text-anchor="start"
           font-family="-apple-system, BlinkMacSystemFont, &quot;Segoe UI&quot;, Helvetica, Arial, sans-serif" font-size="10" fill="#22c55e"
           >0</text>
  <!-- axes -->
  <line x1="58" y1="50" x2="58" y2="240"
        stroke="#e1e4e8" stroke-width="1" />
  <line x1="58" y1="240" x2="848" y2="240"
        stroke="#e1e4e8" stroke-width="1" />
  <line x1="848" y1="50" x2="848" y2="240"
           stroke="#e1e4e8" stroke-width="1" />
  <!-- x-axis labels -->
  <text x="73" y="256" text-anchor="middle"
           font-family="-apple-system, BlinkMacSystemFont, &quot;Segoe UI&quot;, Helvetica, Arial, sans-serif" font-size="10" fill="#586069"
           >Sep 7</text>
  <text x="313" y="256" text-anchor="middle"
           font-family="-apple-system, BlinkMacSystemFont, &quot;Segoe UI&quot;, Helvetica, Arial, sans-serif" font-size="10" fill="#586069"
           >Nov 2</text>
  <text x="553" y="256" text-anchor="middle"
           font-family="-apple-system, BlinkMacSystemFont, &quot;Segoe UI&quot;, Helvetica, Arial, sans-serif" font-size="10" fill="#586069"
           >Dec 28</text>
  <text x="793" y="256" text-anchor="middle"
           font-family="-apple-system, BlinkMacSystemFont, &quot;Segoe UI&quot;, Helvetica, Arial, sans-serif" font-size="10" fill="#586069"
           >Feb 22</text>
  <text x="823" y="256" text-anchor="middle"
           font-family="-apple-system, BlinkMacSystemFont, &quot;Segoe UI&quot;, Helvetica, Arial, sans-serif" font-size="10" fill="#586069"
           >Mar 1</text>
</svg>